<svg width="43" height="43" viewBox="0 0 43 43" fill="none" xmlns="http://www.w3.org/2000/svg">
<rect x="1.28125" y="1.07001" width="40" height="40" rx="20" stroke="black" stroke-opacity="0.65" stroke-width="2"/>
<path d="M21.3711 16.9475C23.7336 16.9475 25.6836 18.8975 25.6836 21.26C25.6836 23.66 23.7336 25.5725 21.3711 25.5725C18.9711 25.5725 17.0586 23.66 17.0586 21.26C17.0586 18.8975 18.9711 16.9475 21.3711 16.9475ZM21.3711 24.0725C22.9086 24.0725 24.1461 22.835 24.1461 21.26C24.1461 19.7225 22.9086 18.485 21.3711 18.485C19.7961 18.485 18.5586 19.7225 18.5586 21.26C18.5586 22.835 19.8336 24.0725 21.3711 24.0725ZM26.8461 16.7975C26.8461 17.36 26.3961 17.81 25.8336 17.81C25.2711 17.81 24.8211 17.36 24.8211 16.7975C24.8211 16.235 25.2711 15.785 25.8336 15.785C26.3961 15.785 26.8461 16.235 26.8461 16.7975ZM29.6961 17.81C29.7711 19.1975 29.7711 23.36 29.6961 24.7475C29.6211 26.0975 29.3211 27.26 28.3461 28.2725C27.3711 29.2475 26.1711 29.5475 24.8211 29.6225C23.4336 29.6975 19.2711 29.6975 17.8836 29.6225C16.5336 29.5475 15.3711 29.2475 14.3586 28.2725C13.3836 27.26 13.0836 26.0975 13.0086 24.7475C12.9336 23.36 12.9336 19.1975 13.0086 17.81C13.0836 16.46 13.3836 15.26 14.3586 14.285C15.3711 13.31 16.5336 13.01 17.8836 12.935C19.2711 12.86 23.4336 12.86 24.8211 12.935C26.1711 13.01 27.3711 13.31 28.3461 14.285C29.3211 15.26 29.6211 16.46 29.6961 17.81ZM27.8961 26.21C28.3461 25.1225 28.2336 22.4975 28.2336 21.26C28.2336 20.06 28.3461 17.435 27.8961 16.31C27.5961 15.5975 27.0336 14.9975 26.3211 14.735C25.1961 14.285 22.5711 14.3975 21.3711 14.3975C20.1336 14.3975 17.5086 14.285 16.4211 14.735C15.6711 15.035 15.1086 15.5975 14.8086 16.31C14.3586 17.435 14.4711 20.06 14.4711 21.26C14.4711 22.4975 14.3586 25.1225 14.8086 26.21C15.1086 26.96 15.6711 27.5225 16.4211 27.8225C17.5086 28.2725 20.1336 28.16 21.3711 28.16C22.5711 28.16 25.1961 28.2725 26.3211 27.8225C27.0336 27.5225 27.6336 26.96 27.8961 26.21Z" fill="#323232"/>
</svg>
