<svg width="43" height="43" viewBox="0 0 43 43" fill="none" xmlns="http://www.w3.org/2000/svg">
<rect x="1.25391" y="1.07001" width="40" height="40" rx="20" stroke="black" stroke-opacity="0.65" stroke-width="2"/>
<path d="M28.5438 12.86C29.1813 12.86 29.7438 13.4225 29.7438 14.0975V28.46C29.7438 29.135 29.1813 29.66 28.5438 29.66H14.1062C13.4687 29.66 12.9437 29.135 12.9437 28.46L12.9437 14.0975C12.9437 13.4225 13.4687 12.86 14.1062 12.86L28.5438 12.86ZM18.0062 27.26V19.2725H15.5312L15.5312 27.26H18.0062ZM16.7687 18.1475C17.5562 18.1475 18.1937 17.51 18.1937 16.7225C18.1937 15.935 17.5562 15.26 16.7687 15.26C15.9437 15.26 15.3062 15.935 15.3062 16.7225C15.3062 17.51 15.9437 18.1475 16.7687 18.1475ZM27.3438 27.26V22.8725C27.3438 20.735 26.8562 19.0475 24.3437 19.0475C23.1437 19.0475 22.3187 19.7225 21.9812 20.36H21.9437V19.2725H19.5812V27.26H22.0562V23.3225C22.0562 22.2725 22.2437 21.26 23.5562 21.26C24.8312 21.26 24.8312 22.46 24.8312 23.36V27.26H27.3438Z" fill="#323232"/>
</svg>
