<svg width="43" height="43" viewBox="0 0 43 43" fill="none" xmlns="http://www.w3.org/2000/svg">
<rect x="1.22266" y="1.07001" width="40" height="40" rx="20" stroke="black" stroke-opacity="0.65" stroke-width="2"/>
<path d="M28.9305 17.3599C28.9305 17.5474 28.9305 17.6974 28.9305 17.8849C28.9305 23.0974 24.993 29.0599 17.7555 29.0599C15.5055 29.0599 13.443 28.4224 11.718 27.2974C12.018 27.3349 12.318 27.3724 12.6555 27.3724C14.493 27.3724 16.1805 26.7349 17.5305 25.6849C15.8055 25.6474 14.343 24.5224 13.8555 22.9474C14.118 22.9849 14.343 23.0224 14.6055 23.0224C14.943 23.0224 15.318 22.9474 15.618 22.8724C13.818 22.4974 12.468 20.9224 12.468 19.0099V18.9724C12.993 19.2724 13.6305 19.4224 14.268 19.4599C13.1805 18.7474 12.5055 17.5474 12.5055 16.1974C12.5055 15.4474 12.693 14.7724 13.0305 14.2099C14.9805 16.5724 17.9055 18.1474 21.168 18.3349C21.093 18.0349 21.0555 17.7349 21.0555 17.4349C21.0555 15.2599 22.818 13.4974 24.993 13.4974C26.118 13.4974 27.1305 13.9474 27.8805 14.7349C28.743 14.5474 29.6055 14.2099 30.3555 13.7599C30.0555 14.6974 29.4555 15.4474 28.6305 15.9349C29.418 15.8599 30.2055 15.6349 30.8805 15.3349C30.3555 16.1224 29.6805 16.7974 28.9305 17.3599Z" fill="#323232"/>
</svg>
