<svg width="95" height="97" viewBox="0 0 95 97" fill="none" xmlns="http://www.w3.org/2000/svg">
<path fill-rule="evenodd" clip-rule="evenodd" d="M45.4074 3.25051C45.4074 5.05617 46.4911 6.50103 47.8446 6.50103C49.198 6.50103 50.2818 5.05617 50.2818 3.25051C50.2818 1.44485 49.198 0 47.8446 0C46.4911 0 45.4074 1.44485 45.4074 3.25051ZM21.2856 9.02343C21.596 10.6162 22.8308 12.2479 24.0348 12.6478C25.4321 13.1142 26.0171 12.3325 25.6596 10.4797C25.3493 8.88691 24.1144 7.25515 22.9104 6.85533C21.5131 6.38889 20.9282 7.17063 21.2856 9.02343ZM70.3399 9.0088C69.8102 10.3886 69.7858 11.9245 70.283 12.4218C71.7063 13.8456 74.6537 11.4321 74.6537 8.84302C74.6537 5.72416 71.5536 5.84443 70.3399 9.0088ZM36.8739 11.9781C33.5204 13.2247 28.3811 16.0754 25.4532 18.3085C18.8582 23.3403 13.1243 33.3682 15.49 35.7345C16.6209 36.8657 18.7705 35.0958 22.2313 30.1843C25.0259 26.2186 29.2 21.7362 31.5089 20.2231C36.5214 16.9384 47.8202 15.4286 55.9637 16.9563C62.2646 18.1395 73.8592 27.4392 75.5067 32.6319C76.6051 36.0937 81.1529 36.9502 81.1529 33.6948C81.1529 32.562 79.3153 28.9312 77.0714 25.6254C68.7882 13.4328 50.0543 7.07149 36.8739 11.9781ZM40.5671 24.491C35.2426 26.716 30.7842 30.8539 30.7842 33.5697C30.7842 36.4578 35.0688 36.3879 36.1834 33.4819C36.6627 32.2305 39.6036 30.3663 42.7167 29.3375C47.2694 27.8358 49.5197 27.9463 54.204 29.9047C57.4081 31.2439 60.0305 33.1081 60.0305 34.0475C60.0305 34.9869 61.1809 35.7557 62.5864 35.7557C66.299 35.7557 64.8156 30.9514 59.9932 27.3531C54.9303 23.576 45.9289 22.2498 40.5671 24.491ZM2.29178 26.1C1.64836 27.1418 2.1293 28.6305 3.36089 29.4107C6.79571 31.5869 8.3279 31.1546 7.74947 28.1706C7.0963 24.7982 3.85483 23.5679 2.29178 26.1ZM89.6831 25.5458C87.3905 26.3682 86.8787 30.8799 89.0787 30.8799C91.2071 30.8799 94.5103 26.4088 93.0123 25.5555C92.2974 25.1492 90.8009 25.146 89.6831 25.5458ZM2.46563 41.5594C-1.04068 45.0684 -0.761215 57.682 3.00994 65.9871C8.38639 77.8271 24.7725 90.8568 34.44 90.9786C39.8928 91.0469 37.233 86.6376 30.625 84.658C16.6566 80.4714 3.83533 63.1997 5.0718 50.2351C5.55112 45.2114 6.13117 44.6442 11.2866 44.1534C19.6154 43.3619 27.5817 46.2824 35.4327 53.0045C39.9546 56.8775 42.9247 58.3922 43.9613 57.3553C45.9712 55.3449 34.2255 44.4752 26.5955 41.2864C19.1344 38.1675 5.70547 38.3203 2.46563 41.5594ZM68.7313 41.3579C60.7113 44.8473 50.0673 55.3806 46.5512 63.307C44.7851 67.2873 43.1554 74.9666 42.9279 80.3722C42.7021 85.7778 42.252 91.5865 41.9303 93.2768C41.1228 97.5252 44.8842 98.476 46.1922 94.3543C47.0419 91.6743 48.6163 91.0144 54.1634 91.0144C69.4365 91.0144 84.9501 81.1263 91.9805 66.9102C95.7306 59.3284 96.0734 42.8402 92.5265 40.5973C88.947 38.3333 74.6277 38.7916 68.7313 41.3579ZM70.5917 46.1004C59.0833 51.2216 50.5336 62.0019 47.8624 74.7618L46.6715 80.4502L52.4704 73.9492C55.6615 70.3736 58.3001 66.486 58.3375 65.3093C58.3749 64.1343 59.2328 61.6249 60.245 59.7347C61.9332 56.5785 62.2451 56.5216 64.0747 59.0228C65.9026 61.5225 66.4225 61.4185 70.361 57.7681C72.7218 55.5789 74.6537 52.6567 74.6537 51.2736C74.6537 49.8889 75.7505 48.7577 77.0909 48.7577C78.4314 48.7577 79.5281 49.832 79.5281 51.1452C79.5281 52.5982 80.4802 53.1654 81.9653 52.5966C83.4439 52.0277 84.4025 52.5917 84.4025 54.0252C84.4025 55.3254 81.4096 57.7405 77.7522 59.3901C71.6885 62.1255 71.4106 62.5025 74.6082 63.6857C79.7523 65.5905 77.0259 68.2608 69.9353 68.2608C65.987 68.2608 62.7976 69.3513 61.0298 71.3049C58.4269 74.1816 58.4577 74.3961 61.5903 75.2153C66.9619 76.6211 65.381 79.6376 59.275 79.6376C55.3089 79.6376 53.1317 80.5981 51.9066 82.8881C50.2996 85.8916 50.6717 86.1386 56.7891 86.1386C74.0688 86.1386 92.2064 66.8891 90.6173 50.2351C90.1088 44.8977 89.8212 44.6799 82.7777 44.3126C78.7563 44.103 73.2726 44.9075 70.5917 46.1004ZM17.7858 51.6929C17.7858 53.6725 16.7671 54.8118 15.1179 54.672C9.6586 54.2105 11.5206 57.8266 18.7038 61.6379C24.6555 64.7958 25.6125 65.8603 23.5441 67.0175C19.8981 69.0588 22.0184 71.5113 27.4323 71.5113C29.9507 71.5113 32.9468 72.6392 34.0907 74.0175C35.6034 75.841 36.6546 76.036 37.9463 74.7358C39.2332 73.4372 37.6408 70.9766 32.1572 65.7839C27.9977 61.8443 23.9292 56.6305 23.1184 54.1974C21.3458 48.8764 17.7858 47.204 17.7858 51.6929Z" fill="#3CB333"/>
</svg>
