<svg width="118" height="112" viewBox="0 0 118 112" fill="none" xmlns="http://www.w3.org/2000/svg">
<path fill-rule="evenodd" clip-rule="evenodd" d="M57.1562 4.59889C57.1562 7.12828 57.9859 9.19778 59 9.19778C60.0141 9.19778 60.8438 7.12828 60.8438 4.59889C60.8438 2.0695 60.0141 0 59 0C57.9859 0 57.1562 2.0695 57.1562 4.59889ZM16.5938 19.251C16.5938 22.1924 22.809 26.2965 24.5827 24.5268C26.3564 22.7572 22.243 16.556 19.2948 16.556C17.8088 16.556 16.5938 17.7683 16.5938 19.251ZM41.4088 20.7925C25.3774 28.4432 16.5624 42.1314 16.6343 59.2668C16.6804 70.5562 22.8828 86.4389 26.0208 83.308C27.3907 81.9412 27.0294 79.5498 24.8077 75.2636C20.5357 67.0206 20.8491 52.0079 25.4788 42.996C41.56 11.7033 87.2002 16.981 95.8197 51.1286C97.9953 59.7506 95.7109 76.0087 92.0031 78.2952C89.4495 79.8699 90.0377 82.7801 92.9084 82.7801C96.4171 82.7801 101.406 69.653 101.406 60.4221C101.406 36.5207 85.1075 19.0854 60.9765 17.1723C52.7792 16.5229 48.8243 17.255 41.4088 20.7925ZM95.2352 19.9242C93.5537 21.7767 92.7369 23.848 93.4173 24.5268C94.7853 25.8936 101.406 20.5754 101.406 18.1104C101.406 15.5038 98.4599 16.3702 95.2352 19.9242ZM54.6506 33.2353C48.5257 38.042 48.1532 46.1729 53.8172 51.4358C58.8267 56.0936 59.9274 56.101 64.5312 51.5076C68.1856 47.8616 69.4153 39.4125 66.8083 35.8714C62.5013 30.0216 59.5587 29.3851 54.6506 33.2353ZM56.0205 39.4438C54.3962 43.6656 56.0389 48.7483 59.0258 48.7483C60.77 48.7483 61.9758 46.5739 62.3427 42.7697C62.7778 38.283 62.1878 36.7911 59.9809 36.7911C58.3639 36.7911 56.581 37.985 56.0205 39.4438ZM0 58.8658C0 59.8776 2.07422 60.7054 4.60938 60.7054C7.14453 60.7054 9.21875 59.8776 9.21875 58.8658C9.21875 57.8541 7.14453 57.0263 4.60938 57.0263C2.07422 57.0263 0 57.8541 0 58.8658ZM108.781 58.8658C108.781 59.8776 110.855 60.7054 113.391 60.7054C115.926 60.7054 118 59.8776 118 58.8658C118 57.8541 115.926 57.0263 113.391 57.0263C110.855 57.0263 108.781 57.8541 108.781 58.8658ZM48.8594 64.1288C41.206 68.8436 37.0502 73.8932 36.4565 79.1929C36.0711 82.6421 36.9193 83.8268 40.1016 84.2811C42.8948 84.6822 44.25 83.9316 44.25 81.989C44.25 80.3997 43.4129 79.1009 42.3915 79.1009C38.8128 79.1009 44.9432 72.0315 51.9071 68.1261L58.8507 64.2336L66.2386 67.9937C74.1021 71.9966 78.8074 78.0395 75.5993 80.017C72.2031 82.1105 73.6984 84.8827 77.8984 84.2811C86.3133 83.0781 79.8141 69.5021 67.85 63.29C61.1258 59.8003 55.4784 60.0487 48.8594 64.1288ZM57.1562 82.7801C57.1562 88.9113 57.9749 93.8174 59 93.8174C60.0251 93.8174 60.8438 88.9113 60.8438 82.7801C60.8438 76.6488 60.0251 71.7427 59 71.7427C57.9749 71.7427 57.1562 76.6488 57.1562 82.7801ZM23.3327 93.5028C19.2063 98.0502 19.4921 104.067 24.048 108.613C27.2672 111.825 29.7452 112.292 41.1027 111.832C53.2862 111.337 54.4404 110.949 54.9806 107.154C55.3033 104.879 54.6819 103.015 53.5978 103.015C52.5118 103.015 51.625 103.882 51.625 104.939C51.625 106.141 46.9566 106.658 39.1797 106.319C27.6489 105.815 26.6883 105.453 26.113 101.383C25.276 95.4804 28.4417 93.8781 41.0234 93.845C46.8552 93.8303 51.625 92.9896 51.625 91.9778C51.625 90.9311 46.1896 90.1383 39.0045 90.1383C29.1202 90.1383 25.7222 90.8667 23.3327 93.5028ZM66.375 91.9778C66.375 93.0154 71.5781 93.8174 78.2948 93.8174C88.1773 93.8174 90.5392 94.4226 92.1156 97.3641C95.9156 104.446 92.7775 106.694 79.084 106.694C71.8399 106.694 66.375 105.903 66.375 104.855C66.375 103.843 65.4882 103.015 64.4022 103.015C63.3181 103.015 62.6967 104.879 63.0194 107.154C63.5375 110.784 64.8465 111.363 73.6523 111.862C89.975 112.785 97.7188 109.1 97.7188 100.41C97.7188 93.0834 92.2576 90.1383 78.6747 90.1383C71.7034 90.1383 66.375 90.9348 66.375 91.9778Z" fill="#3CB333"/>
</svg>
