<svg width="92" height="110" viewBox="0 0 92 110" fill="none" xmlns="http://www.w3.org/2000/svg">
<path fill-rule="evenodd" clip-rule="evenodd" d="M42.7006 3.3027C42.7006 5.13734 43.7967 6.60539 45.1656 6.60539C46.5344 6.60539 47.6305 5.13734 47.6305 3.3027C47.6305 1.46805 46.5344 0 45.1656 0C43.7967 0 42.7006 1.46805 42.7006 3.3027ZM14.7643 13.939C14.7643 16.8982 17.479 18.7147 19.7747 17.2896C20.9513 16.5581 20.8889 15.483 19.5726 13.8895C17.0895 10.8824 14.7643 10.9072 14.7643 13.939ZM71.2039 14.1075C70.6681 15.5095 70.6747 17.1014 71.2154 17.6463C72.6368 19.0731 77.3466 14.7697 76.2735 13.0242C74.8701 10.7437 72.277 11.2985 71.2039 14.1075ZM39.5224 25.7577C35.3599 29.2768 34.484 31.2336 34.484 37.015C34.484 44.7647 39.4304 51.1918 45.3956 51.1918C48.9452 51.1918 54.659 45.7357 56.4683 40.6182C58.2693 35.5288 54.4108 26.6131 49.2459 23.9297C44.8484 21.6442 44.2552 21.7565 39.5224 25.7577ZM41.3859 30.0545C38.6235 32.8305 38.9259 42.1226 41.8576 44.5682C45.09 47.2649 48.8663 45.6416 51.1653 40.572C52.664 37.2643 52.4947 35.6477 50.2911 32.269C47.3052 27.6898 44.4458 26.9797 41.3859 30.0545ZM2.02857 43.3479C2.40489 44.484 4.06957 45.4121 5.72603 45.4121C7.38249 45.4121 9.04717 44.484 9.42348 43.3479C9.85732 42.04 8.50159 41.2837 5.72603 41.2837C2.95047 41.2837 1.59474 42.04 2.02857 43.3479ZM82.1401 42.9351C82.1401 43.8433 83.6191 44.5864 85.4267 44.5864C87.2344 44.5864 88.7134 43.8433 88.7134 42.9351C88.7134 42.0268 87.2344 41.2837 85.4267 41.2837C83.6191 41.2837 82.1401 42.0268 82.1401 42.9351ZM31.7627 61.1676C18.064 63.8907 5.48939 73.0672 1.72292 83.0876C-1.55056 91.7935 -0.922819 92.4755 10.3815 92.4755C16.1068 92.4755 21.2225 92.0412 21.7516 91.5095C23.3604 89.8911 19.4526 80.7195 17.4527 81.4247C16.4256 81.788 15.8028 83.3072 16.069 84.8033C16.4421 86.9072 15.2342 87.5215 10.7283 87.5215C7.4893 87.5215 4.90437 86.6925 4.90437 85.6521C4.90437 81.1654 19.0664 69.672 27.8105 67.0629C49.1342 60.6986 74.6417 67.2082 82.8057 81.0961C86.6806 87.6866 86.0693 89.1728 79.4829 89.1728C74.3508 89.1728 73.6573 88.7236 74.3985 85.8717C74.8717 84.0569 74.6203 82.1744 73.8397 81.6889C72.134 80.6304 67.0381 89.9588 68.5121 91.4401C69.8317 92.7661 85.9805 92.7926 89.4003 91.4731C90.83 90.9216 92 89.0209 92 87.2473C92 85.4738 91.2605 84.483 90.3567 85.0444C89.4529 85.6059 88.7134 84.9321 88.7134 83.5483C88.7134 79.7832 79.1575 69.5762 72.4364 66.1596C60.777 60.2362 45.7374 58.39 31.7627 61.1676ZM29.8827 76.2923C26.9215 79.268 27.5065 83.8852 31.0889 85.8123C32.8374 86.7519 39.4928 87.5215 45.8788 87.5215C52.5243 87.5215 57.4904 88.2282 57.4904 89.1728C57.4904 90.081 53.9343 90.8241 49.5877 90.8241C45.2411 90.8241 40.3654 91.7951 38.7501 92.9808C34.696 95.9598 35.8381 103.051 40.4788 103.715C42.4196 103.994 44.4047 105.739 44.8878 107.597C46.0267 111.975 49.2738 109.958 49.2738 104.872C49.2738 101.916 48.2517 100.823 45.1146 100.428C38.4526 99.5928 39.6243 96.6451 46.8089 96.163C58.3301 95.3918 60.777 94.3646 60.777 90.2974C60.777 84.0751 57.6679 82.5674 44.8369 82.5674C37.935 82.5674 32.8407 81.8656 32.8407 80.9161C32.8407 80.0078 36.3525 79.2564 40.6464 79.2465C51.0174 79.2218 60.777 77.5258 60.777 75.7457C60.777 73.4866 32.1719 73.992 29.8827 76.2923ZM0.234074 89.1728C0.234074 91.4434 0.607106 92.3731 1.0623 91.237C1.51915 90.1025 1.51915 88.2447 1.0623 87.1086C0.607106 85.9741 0.234074 86.9022 0.234074 89.1728Z" fill="#3CB333"/>
</svg>
